<svg width="144" height="32" viewBox="0 0 144 32" fill="none" xmlns="http://www.w3.org/2000/svg">
<path d="M0 0H13.1719C17.3949 0 19.5064 1.84486 19.5064 5.53459V15.2453C19.5064 18.9686 17.3949 20.8302 13.1719 20.8302H7.13894V32H0V0ZM12.3172 14.2893V6.54088C12.3172 5.70231 11.8815 5.28302 11.0101 5.28302H7.13894V15.5472H11.0101C11.8815 15.5472 12.3172 15.1279 12.3172 14.2893Z" fill="white"/>
<path d="M43.8509 0H57.1736C61.4302 0 63.5584 1.84486 63.5584 5.53459V26.4151C63.5584 30.1384 61.4302 32 57.1736 32H43.8509V0ZM56.3692 25.8113V6.18868C56.3692 5.3501 55.9168 4.93082 55.0118 4.93082H51.0402V27.0692H55.0118C55.9168 27.0692 56.3692 26.6499 56.3692 25.8113Z" fill="white"/>
<path d="M74.2343 32H67.8997V0H75.7425L81.0213 18.1132L78.3568 25.0566L74.2343 10.566V32Z" fill="white"/>
<path d="M113.262 32L112.156 26.2138H104.867L103.761 32H96.6719L103.911 0H113.061L120.502 32H113.262ZM105.872 20.9811H111.101L108.486 7.44654L105.872 20.9811Z" fill="white"/>
<path d="M136.258 15.6981L144 32H135.956L132.236 21.8365L128.465 32H120.824L128.214 15.6981L121.075 0H129.169L132.236 9.40881L135.303 0H143.045L136.258 15.6981Z" fill="white"/>
<path d="M91.8485 0V32H79L91.8485 0Z" fill="#E05152"/>
<path d="M23 0V32H35.8485L23 0Z" fill="#19A5B8"/>
<path fill-rule="evenodd" clip-rule="evenodd" d="M27.3881 5.81818L25.0385 0H40.2425V5.81818H27.3881ZM32.6748 18.9091L30.3252 13.0909H40.2424V18.9091H32.6748ZM37.9615 32L35.6119 26.1818H40.2424V32H37.9615Z" fill="white"/>
</svg>
